<?xml version="1.0" encoding="UTF-8"?>
<svg id="_레이어_1" data-name="레이어 1" xmlns="http://www.w3.org/2000/svg" viewBox="0 0 1945.21 367.08">
  <defs>
    <style>
      .cls-1 {
        fill: #fff;
      }
    </style>
  </defs>
  <path class="cls-1" d="M76,282.72v-25.08c12.54,0,15.58.38,30.02.38,42.56,0,58.9-4.56,78.28-11.78,7.22-3.04,21.66-22.04,22.8-29.26.38-2.66.38-4.94.38-7.6,0-22.04-14.06-36.1-36.48-42.18-1.52-.38-3.42-.76-5.32-1.14-7.22,2.28-15.58,3.42-25.08,4.56-7.6.76-14.44,1.14-23.18,1.14-15.58,0-27.36,2.66-42.18,2.66v-22.8c15.2,0,26.98-2.66,42.18-2.66,7.98,0,14.82-.38,20.52-1.14,1.9-.38,4.18-.38,6.08-.76v-6.84c4.94,0,11.02-.76,17.48-.76,1.9,0,3.8,0,5.32.38,11.02-6.08,16.34-15.58,19.38-26.98.38-2.66-1.14-8.74-1.52-12.92-1.52-11.78-4.94-23.56-14.06-31.92-3.04-3.04-13.68-5.32-20.52-6.84-19.76-4.94-21.28-5.32-42.56-5.32-12.92,0-15.2,1.14-28.5,2.66-1.9.38-4.94.38-8.74.76.38,23.94,1.52,47.88,1.52,71.44,0,19.38-.76,38.38-.76,57.38,0,8.74,0,17.1.38,25.84,1.14,18.62,4.18,37.62,4.18,57h-22.8c0-16.72-3.04-34.96-4.18-55.1-.38-8.36-.38-17.48-.38-27.74,0-19.38.76-38.76.76-57.38,0-22.8-1.14-45.98-1.52-69.54-12.92,1.52-24.7,3.8-24.7,7.6H0C0,28.12,66.12,32.68,76,31.16c15.2-1.9,17.86-3.04,31.54-3.04,22.8,0,25.46.38,47.88,3.42,3.42.38,18.62,2.66,30.78,14.44,10.64,9.88,18.24,28.88,20.9,50.16,0,1.14,3.42,13.68,1.14,23.56-3.04,12.54-6.84,22.04-13.3,29.26,21.28,11.78,35.34,32.3,35.34,60.42,0,4.18-.38,8.36-.76,12.16-3.04,20.9-23.18,43.32-33.82,47.12-25.46,9.12-42.56,14.44-89.68,14.44-14.82,0-17.48-.38-30.02-.38Z"/>
  <path class="cls-1" d="M257.26,282.34c-6.84-1.14-9.5-8.36-9.5-24.32,0-3.04.38-6.84.38-9.12,2.28-22.8,7.6-44.08,10.26-63.46,6.84-48.26,15.58-74.1,27.74-114.76,2.66-8.36,4.56-14.82,6.08-20.14-10.26,5.32-16.34,7.6-21.66,7.6h-.76v-30.78h.76c4.18,0,10.26-2.66,19.76-8.36,5.32-3.04,8.74-5.7,11.02-6.84,14.44-6.08,18.62-11.4,19.38-12.16-.76,1.14-4.18,7.6-2.66,23.94,1.14,14.44-9.5,47.5-11.78,55.48-13.68,45.22-21.66,69.16-27.36,110.2-3.04,22.42-7.98,43.32-10.26,62.32v.38c27.36-1.14,23.94-25.08,52.82-35.72h.76l6.84,28.88h-.76c-10.64,3.8-30.4,37.62-61.56,37.62-3.42,0-6.08-.38-9.5-.76Z"/>
  <path class="cls-1" d="M387.22,286.9c-8.36-3.8-20.52-7.22-28.5-12.16-9.12-5.7-13.68-14.44-12.54-31.16,1.14-19,7.6-40.28,10.26-48.64,9.5-29.64,15.2-66.12,40.28-92.72-6.84-3.04-5.7-4.18,7.6-9.12,16.34-6.08,34.2-8.36,59.66-8.36h.76l-.38,7.6,7.22-7.98h.38c6.08,0,8.74,4.94,8.74,14.06,0,6.84-1.52,11.78-1.9,19-1.14,17.48-3.42,34.2-5.32,50.54-1.52,12.16-3.8,36.48-8.74,56.24,21.66-27.36-9.88,36.48-34.96,58.52-6.46,5.7-7.6,4.56-17.1,4.56-10.26,0-25.08-.38-25.46-.38ZM417.62,256.5c8.36-13.3,18.24-20.52,21.66-25.46,6.08-9.88,10.26-24.32,14.06-64.22,1.52-16.72,4.18-33.44,4.94-49.4v-1.9c-22.04,0-36.86,1.9-48.64,6.46l.76.38h.38c-20.9,22.42-25.84,49.4-34.96,79.8-2.66,10.64-7.6,26.98-9.12,41.42-.76,6.46,0,8.74,3.04,11.02,1.14,0,7.6,1.52,19.76,1.52.38,0,15.58.38,25.84.38h2.28Z"/>
  <path class="cls-1" d="M532,286.9c-8.36-3.8-20.52-7.22-28.5-12.16-9.12-5.7-13.68-14.44-12.54-31.16,1.14-19,7.6-40.28,10.26-48.64,9.5-29.64,15.2-66.12,40.28-92.72-6.84-3.04-5.7-4.18,7.6-9.12,16.34-6.08,34.2-8.36,59.66-8.36h.76l-.38,7.6,7.22-7.98h.38c6.08,0,8.74,4.94,8.74,14.06,0,6.84-1.52,11.78-1.9,19-1.14,17.48-3.42,34.2-5.32,50.54-1.52,12.16-3.8,36.48-8.74,56.24,21.66-27.36-9.88,36.48-34.96,58.52-6.46,5.7-7.6,4.56-17.1,4.56-10.26,0-25.08-.38-25.46-.38ZM562.4,256.5c8.36-13.3,18.24-20.52,21.66-25.46,6.08-9.88,10.26-24.32,14.06-64.22,1.52-16.72,4.18-33.44,4.94-49.4v-1.9c-22.04,0-36.86,1.9-48.64,6.46l.76.38h.38c-20.9,22.42-25.84,49.4-34.96,79.8-2.66,10.64-7.6,26.98-9.12,41.42-.76,6.46,0,8.74,3.04,11.02,1.14,0,7.6,1.52,19.76,1.52.38,0,15.58.38,25.84.38h2.28Z"/>
  <path class="cls-1" d="M868.3,273.22c0-5.7,1.9-10.64,3.04-12.54,3.04-11.78,4.94-23.18,8.36-33.06,12.54-32.68,21.28-58.52,26.22-85.88,1.52-6.08-.38-11.02-1.9-16.72h.76c-22.8-7.22-27.36-13.68-26.6-19-3.42,4.94-5.7,8.36-6.84,10.64-7.98,12.92-13.68,25.46-19,35.72-14.82,28.5-17.86,40.28-28.12,64.98-1.9,4.56-3.8,8.74-5.32,12.54-1.14,4.94-2.28,9.88-3.8,14.82-.38,1.52-3.8,10.64-7.98,20.14-.38,1.14-.38,1.9-.76,3.04-1.14,3.42-1.9,5.7-2.28,3.8-8.74,18.62-19.38,33.82-19.38-1.9,0-1.9.76-5.7,1.14-8.74.76-5.7,2.28-10.26,4.18-15.2,2.28-7.22,4.94-14.06,7.22-20.14,6.46-39.52,7.98-55.86,7.98-86.64,0-4.18.38-8.74.38-14.06,0-16.72-3.42-14.44-7.98-22.04-1.52,7.22-6.84,13.3-8.74,14.44-12.92,21.28-22.42,43.7-35.34,63.08-21.66,32.3-25.46,39.14-30.02,40.28-6.46,8.36-20.14,26.22-23.94,32.3-6.46,9.12-10.64,14.06-12.54,17.86l-.76,1.14c-.38,2.66-1.14,5.32-2.66,7.98-11.4,20.52-17.48-1.9-19-9.88h-.76c0-.38.38-.76.38-1.52v-1.14c.38-1.52,1.14-3.04,1.52-4.56,1.52-5.7,2.28-11.78,3.8-17.86,10.64-38,22.42-74.1,34.2-108.3,2.28-6.08,3.8-11.02,5.32-14.82,1.9-5.7,3.8-12.16,6.08-19-13.3,3.04-26.22,12.92-36.1,19.38l-25.84,17.86-9.5-26.6,1.14-1.14,23.18-16.34c14.82-9.12,34.96-24.7,55.48-24.7,3.8,0,7.6.38,12.16,1.9,34.96,10.64,13.3-3.8.76,33.82-10.64,32.3-4.94,33.44-9.5,30.78-1.52,6.84-4.18,13.68-6.84,18.62-5.7,17.1-11.4,33.82-16.72,50.16,2.66-3.42,4.56-5.7,4.94-6.46,7.22-9.5,12.92-14.82,16.72-16.72l11.4-20.14c14.06-21.28,23.94-44.46,36.48-64.6,8.36-13.3,19.38-24.32,23.94-24.32,18.62-.38,29.26,18.24,29.26,50.54,0,5.7-.38,11.02-.38,14.06v15.58c2.28-4.94,4.94-10.26,7.98-16.34,7.22-13.68,13.3-26.98,19.76-37.62,4.56-7.6,8.74-13.3,11.02-16.72,6.84-11.02,12.92-11.78,18.62-1.52,4.18-3.8,32.3-2.66,41.42,36.1,1.52,6.46,2.28,14.82,2.28,23.18-3.8,36.1-15.58,66.5-26.98,94.24-2.66,6.46-4.18,12.92-5.32,19,17.1-5.7,32.68-14.44,41.42-23.56h1.14l13.3,22.04c-14.06,14.06-31.16,24.32-50.16,30.78-17.86,6.08-20.9,10.64-28.88.76-1.52-2.28-3.04-7.98-3.04-11.78Z"/>
  <path class="cls-1" d="M1136.19,277.4c-18.62-6.84-34.96-25.08-49.02-36.86l-2.28-5.7,7.22-28.88c3.42,1.14,7.6,9.5,9.88,11.02,13.3,11.4,25.46,25.84,41.8,31.92,6.08,1.9,17.48,4.56,40.28,4.56,16.72,0,26.22-3.04,35.34-10.64,7.6-6.08,13.68-17.86,13.68-26.22,0-9.5,1.9-16.72-27.36-39.14-26.6-20.52-67.26-18.24-97.66-68.02-5.32-9.12-8.36-18.62-8.36-27.36,0-23.18,9.12-36.48,30.4-44.46,17.48-6.08,33.82-9.5,49.78-9.5,21.66,0,39.52,5.7,60.42,19.38l-12.16,25.46c-15.58-9.88-30.02-14.44-48.26-14.44-13.68,0-28.12,2.66-41.8,7.6-15.2,5.7-15.58,6.46-15.58,15.96,0,2.28.38,3.8,5.32,11.78,22.04,36.48,51.68,28.88,91.58,59.66,31.92,24.32,36.48,50.54,36.48,63.08,0,17.48-10.26,39.9-22.04,49.78-16.34,13.3-27.74,17.48-49.78,17.48-20.14,0-35.34-1.9-47.88-6.46Z"/>
  <path class="cls-1" d="M1298.45,282.34h-20.52v-30.78h25.84c.76-5.32,1.52-10.26,2.28-15.58,3.8-26.6,7.98-54.72,16.34-79.8,1.14-3.8,2.28-7.22,3.8-11.02l-12.54,5.7c-8.36,6.46-21.28,23.56-33.44,23.56h-.76v-30.78h.76c6.84,0,15.2-9.12,21.66-13.68,12.54-9.12,25.46-16.72,37.62-23.56,4.18-11.02,8.74-21.66,12.92-31.54,12.92-30.78,17.86-36.1,18.24-38.38h1.14l18.24,8.36h.76c-3.42,12.92-18.24,39.9-19.76,42.94-.38,1.14-.76,1.9-1.52,3.04,9.88-4.94,26.22-14.82,39.14-14.82,2.66,0,4.56.38,7.6,1.14,6.46,1.9,7.6,7.22,7.6,26.6,0,28.12-6.46,57-12.92,79.04-9.5,31.54-36.1,79.04-49.4,87.02-10.64,6.46-22.8,9.88-41.8,11.4-4.94,28.88-9.5,55.86-9.5,85.88h-20.52c0-30.78,4.18-58.14,8.74-84.74ZM1350.51,243.96c12.92-8.36,35.72-54.34,40.66-70.3,6.84-23.18,11.4-44.84,12.16-64.22l-50.54,23.18c-3.8,11.02-7.6,22.04-11.02,33.06-7.98,24.7-11.78,49.4-15.2,74.48-.38,3.42-1.14,6.46-1.52,9.88,12.16-1.14,20.9-3.42,25.46-6.08Z"/>
  <path class="cls-1" d="M1434.49,261.06c0-17.48,6.08-34.58,7.98-43.7,9.88-44.08,11.78-53.58,22.8-92.72.38-1.52.76-2.66,1.14-4.18-8.74,3.04-14.82,4.18-22.04,4.18v-30.78c9.12,0,15.2-1.52,29.26-7.22,12.54-4.94,13.68-7.22,18.62-3.04,6.08,5.7-.38,21.28-8.36,49.4-12.16,42.18-13.68,50.54-22.42,91.2-1.9,7.6-4.18,15.2-5.7,22.42,9.12-4.56,17.48-7.6,23.56-11.78l10.26,25.84c-14.06,9.12-25.84,13.3-32.68,16.72-9.5,8.36-22.42,9.5-22.42-16.34ZM1477.43,20.52h.38c11.4-5.7,20.9-14.44,36.1-14.44h.76v37.24h-.76c-10.64,0-14.06,4.94-24.7,10.26h-1.14l-10.64-33.06Z"/>
  <path class="cls-1" d="M1508.97,285.38h-.38c-.38-1.14-.76-2.28-.76-3.42,0-12.16,16.34-27.74,17.1-31.16,4.18-16.34,8.74-30.78,11.4-43.32,4.18-18.24,10.26-32.3,13.68-44.84,3.04-10.26,5.7-20.52,8.74-30.4-14.82,12.92-21.66,18.62-24.32,19.76h-.76l-8.74-27.36h.38c4.94-2.28,13.3-9.5,31.92-26.22,8.74-7.6,14.82-12.16,21.28-15.2,9.5-4.56,10.64-.38,17.1,8.36,9.88,13.68,0,17.86-3.04,15.96-4.56,8.74-7.98,16.72-11.02,25.46-4.94,13.3-7.98,25.84-11.4,38-3.42,12.54-7.22,22.8-10.64,32.3,13.3-18.24,26.98-33.82,36.86-49.4,6.84-10.64,34.58-56.24,47.5-60.8,6.08-1.9,9.88-3.04,14.44-3.04s7.98.76,16.34,3.42h.76l-5.32,29.26-19.38-.76c-6.84,2.28-15.2,14.82-36.86,48.64-17.48,27.36-37.24,47.5-50.16,68.78l-20.14,25.84c-.76,3.04-1.52,5.32-1.9,7.22l-.38-.38c0,9.88-4.94,20.9-11.4,20.9h-.38l-20.52-7.6Z"/>
  <path class="cls-1" d="M1777.25,286.14c-3.8-7.22-3.42-17.48-3.42-25.84,0-34.96,11.02-81.32,15.96-106.78,1.14-6.46,1.9-12.92,3.04-19.38-.76,1.9-1.9,3.42-2.66,4.94l-2.66,11.02h-1.14c-.76-.38-1.14-.38-1.9-.76-6.46,11.78-13.3,22.42-17.1,29.26-11.4,20.52-20.52,41.42-33.06,60.42-7.6,11.02-15.58,20.14-21.66,29.26-9.88,14.06-15.58,19.76-19.38,18.62-8.74-3.04-18.24-48.64-18.24-56.62,0-15.58-.38-32.3,1.9-48.26,3.8-26.98,21.66-83.98,47.88-97.28,3.04-1.52,5.7-1.9,8.74-1.9,14.44,0,33.82,14.44,47.5,24.32,4.56-8.74,7.22-15.58,7.22-19h.76c25.84-.38,31.16-2.28,31.16.76,0,.38.76,6.08,0,11.78s-1.9,12.54-3.04,17.1c-3.42,13.68-4.56,27.36-7.22,41.42-4.94,25.84-13.68,63.46-14.82,93.1,4.56-4.94,8.74-10.64,19.76-25.84.38-.38,9.88-15.96,11.02-17.1h1.14l8.74,13.68h7.6c0,2.28-1.52,6.46-3.04,7.98-3.8,3.8-5.32,9.12-9.12,13.68-9.5,13.3-19.38,28.5-31.16,38.38-6.08,4.94-11.4,4.94-12.16,4.94-5.32,2.66-8.74,2.28-10.64-1.9ZM1717.21,221.54c14.44-21.28,21.28-38.76,32.3-58.14,4.18-7.6,10.64-18.24,16.72-28.88-10.64-10.26-22.8-21.28-32.68-21.28-1.52,0-1.52-7.6-.76-9.88-19.38,11.4-31.92,61.18-35.34,83.22-2.28,14.06-1.9,27.74-1.9,43.7h-.38c.76,3.04,2.66,9.5,3.8,15.58,8.36-11.78,14.82-19.38,18.24-24.32Z"/>
  <path class="cls-1" d="M1873.38,282.34c-6.84-1.14-9.5-8.36-9.5-24.32,0-3.04.38-6.84.38-9.12,2.28-22.8,7.6-44.08,10.26-63.46,6.84-48.26,15.58-74.1,27.74-114.76,2.66-8.36,4.56-14.82,6.08-20.14-10.26,5.32-16.34,7.6-21.66,7.6h-.76v-30.78h.76c4.18,0,10.26-2.66,19.76-8.36,5.32-3.04,8.74-5.7,11.02-6.84,14.44-6.08,18.62-11.4,19.38-12.16-.76,1.14-4.18,7.6-2.66,23.94,1.14,14.44-9.5,47.5-11.78,55.48-13.68,45.22-21.66,69.16-27.36,110.2-3.04,22.42-7.98,43.32-10.26,62.32v.38c27.36-1.14,23.94-25.08,52.82-35.72h.76l6.84,28.88h-.76c-10.64,3.8-30.4,37.62-61.56,37.62-3.42,0-6.08-.38-9.5-.76Z"/>
</svg>